# xmcd CD database file generated by Grip 3.2.0
# 
# Track frame offsets:
#       183
#       15240
#       27545
#       49483
#       63253
#       75085
#       89755
#       104120
#       116790
#       132925
#       142835
# 
# Disc length: 2079 seconds
# 
# Revision: 4
# Processed by: cddbd v1.5.2PL0 Copyright (c) Steve Scherf et al.
# Submitted via: Grip 3.2.0
# 
DISCID=92081d0b
DTITLE=Jimmy Cliff - Wonderful World, Beautiful People
DYEAR=1972
DGENRE=Reggae
TTITLE0=Time Will Tell
TTITLE1=Many Rivers To Cross
TTITLE2=Viet Nam
TTITLE3=Use What I Got
TTITLE4=Hard Road To Travel
TTITLE5=Wonderful World, Beautiful People
TTITLE6=Sufferin' In The Land
TTITLE7=Hello Sunsine
TTITLE8=My ancestors
TTITLE9=That's The Way Life Goes
TTITLE10=Come Into My Life
EXTD=YEAR: 1972
EXTT0=
EXTT1=
EXTT2=
EXTT3=
EXTT4=
EXTT5=
EXTT6=
EXTT7=
EXTT8=
EXTT9=
EXTT10=
PLAYORDER=
